<?xml version="1.0" encoding="UTF-8" standalone="no"?>
<!-- Created with Inkscape (http://www.inkscape.org/) -->

<svg
   width="210mm"
   height="297mm"
   viewBox="0 0 210 297"
   version="1.1"
   id="svg829"
   sodipodi:docname="testwork.svg"
   inkscape:version="1.1.1 (3bf5ae0d25, 2021-09-20)"
   xmlns:inkscape="http://www.inkscape.org/namespaces/inkscape"
   xmlns:sodipodi="http://sodipodi.sourceforge.net/DTD/sodipodi-0.dtd"
   xmlns="http://www.w3.org/2000/svg"
   xmlns:svg="http://www.w3.org/2000/svg">
  <sodipodi:namedview
     id="namedview831"
     pagecolor="#ffffff"
     bordercolor="#999999"
     borderopacity="1"
     inkscape:pageshadow="0"
     inkscape:pageopacity="0"
     inkscape:pagecheckerboard="0"
     inkscape:document-units="mm"
     showgrid="true"
     inkscape:zoom="1.8116734"
     inkscape:cx="478.83906"
     inkscape:cy="555.01172"
     inkscape:window-width="1886"
     inkscape:window-height="1021"
     inkscape:window-x="15"
     inkscape:window-y="40"
     inkscape:window-maximized="1"
     inkscape:current-layer="layer1">
    <inkscape:grid
       type="xygrid"
       id="grid890" />
  </sodipodi:namedview>
  <defs
     id="defs826">
    <marker
       style="overflow:visible"
       id="marker24592"
       refX="0.0"
       refY="0.0"
       orient="auto"
       inkscape:stockid="Arrow1Lstart"
       inkscape:isstock="true">
      <path
         transform="scale(0.8) translate(12.5,0)"
         style="fill-rule:evenodd;fill:context-stroke;stroke:context-stroke;stroke-width:1.0pt"
         d="M 0.0,0.0 L 5.0,-5.0 L -12.5,0.0 L 5.0,5.0 L 0.0,0.0 z "
         id="path24590" />
    </marker>
    <marker
       style="overflow:visible"
       id="Arrow1Lstart"
       refX="0.0"
       refY="0.0"
       orient="auto"
       inkscape:stockid="Arrow1Lstart"
       inkscape:isstock="true">
      <path
         transform="scale(0.8) translate(12.5,0)"
         style="fill-rule:evenodd;fill:context-stroke;stroke:context-stroke;stroke-width:1.0pt"
         d="M 0.0,0.0 L 5.0,-5.0 L -12.5,0.0 L 5.0,5.0 L 0.0,0.0 z "
         id="path22308" />
    </marker>
    <marker
       style="overflow:visible;"
       id="Arrow1Lend"
       refX="0.0"
       refY="0.0"
       orient="auto"
       inkscape:stockid="Arrow1Lend"
       inkscape:isstock="true">
      <path
         transform="scale(0.8) rotate(180) translate(12.5,0)"
         style="fill-rule:evenodd;fill:context-stroke;stroke:context-stroke;stroke-width:1.0pt;"
         d="M 0.0,0.0 L 5.0,-5.0 L -12.5,0.0 L 5.0,5.0 L 0.0,0.0 z "
         id="path22311" />
    </marker>
    <marker
       style="overflow:visible"
       id="DotL"
       refX="0.0"
       refY="0.0"
       orient="auto"
       inkscape:stockid="DotL"
       inkscape:isstock="true">
      <path
         transform="scale(0.8) translate(7.4, 1)"
         style="fill-rule:evenodd;fill:context-stroke;stroke:context-stroke;stroke-width:1.0pt"
         d="M -2.5,-1.0 C -2.5,1.7600000 -4.7400000,4.0 -7.5,4.0 C -10.260000,4.0 -12.5,1.7600000 -12.5,-1.0 C -12.5,-3.7600000 -10.260000,-6.0 -7.5,-6.0 C -4.7400000,-6.0 -2.5,-3.7600000 -2.5,-1.0 z "
         id="path22369" />
    </marker>
    <marker
       style="overflow:visible"
       id="DotL-0"
       refX="0"
       refY="0"
       orient="auto"
       inkscape:stockid="DotL"
       inkscape:isstock="true">
      <path
         transform="matrix(0.8,0,0,0.8,5.92,0.8)"
         style="fill:context-stroke;fill-rule:evenodd;stroke:context-stroke;stroke-width:1pt"
         d="m -2.5,-1 c 0,2.76 -2.24,5 -5,5 -2.76,0 -5,-2.24 -5,-5 0,-2.76 2.24,-5 5,-5 2.76,0 5,2.24 5,5 z"
         id="path22369-3" />
    </marker>
    <marker
       style="overflow:visible"
       id="DotL-5"
       refX="0"
       refY="0"
       orient="auto"
       inkscape:stockid="DotL"
       inkscape:isstock="true">
      <path
         transform="matrix(0.8,0,0,0.8,5.92,0.8)"
         style="fill:context-stroke;fill-rule:evenodd;stroke:context-stroke;stroke-width:1pt"
         d="m -2.5,-1 c 0,2.76 -2.24,5 -5,5 -2.76,0 -5,-2.24 -5,-5 0,-2.76 2.24,-5 5,-5 2.76,0 5,2.24 5,5 z"
         id="path22369-4" />
    </marker>
    <marker
       style="overflow:visible"
       id="DotL-9"
       refX="0"
       refY="0"
       orient="auto"
       inkscape:stockid="DotL"
       inkscape:isstock="true">
      <path
         transform="matrix(0.8,0,0,0.8,5.92,0.8)"
         style="fill:context-stroke;fill-rule:evenodd;stroke:context-stroke;stroke-width:1pt"
         d="m -2.5,-1 c 0,2.76 -2.24,5 -5,5 -2.76,0 -5,-2.24 -5,-5 0,-2.76 2.24,-5 5,-5 2.76,0 5,2.24 5,5 z"
         id="path22369-2" />
    </marker>
  </defs>
  <g
     inkscape:label="Layer 1"
     inkscape:groupmode="layer"
     id="layer1">
    <path
       style="fill:none;fill-opacity:0.480729;stroke:#000000;stroke-width:0.499999"
       d="m 19.84375,105.83333 v 72.76042 l 66.145833,0"
       id="path925" />
    <path
       style="fill:#000000;fill-opacity:0.998602;stroke:#000000;stroke-width:0.499999"
       d="m 33.072916,175.94791 v 5.29167"
       id="path4050" />
    <path
       style="fill:#000000;fill-opacity:0.998602;stroke:#000000;stroke-width:0.499999"
       d="m 72.760417,175.94791 v 5.29167"
       id="path4050-90" />
    <path
       style="fill:none;fill-opacity:0.998602;stroke:#000000;stroke-width:0.499999"
       d="M 105.833 178.594 l 72.7604 0 M 105.833 178.594 l 0 -72.7604 M 105.833 177.949 C 106.078 177.903 106.323 177.853 106.568 177.798 C 106.813 177.744 107.058 177.684 107.303 177.618 C 107.548 177.552 107.793 177.48 108.038 177.402 C 108.283 177.324 108.528 177.239 108.773 177.146 C 109.018 177.054 109.263 176.953 109.508 176.844 C 109.753 176.735 109.998 176.617 110.243 176.489 C 110.488 176.361 110.733 176.224 110.978 176.075 C 111.223 175.926 111.468 175.767 111.713 175.594 C 111.958 175.422 112.203 175.238 112.448 175.04 C 112.693 174.842 112.938 174.63 113.183 174.404 C 113.428 174.178 113.673 173.936 113.918 173.679 C 114.163 173.422 114.408 173.148 114.653 172.857 C 114.898 172.566 115.143 172.258 115.388 171.931 C 115.633 171.604 115.878 171.259 116.123 170.894 C 116.368 170.53 116.613 170.145 116.858 169.741 C 117.103 169.336 117.348 168.911 117.593 168.465 C 117.838 168.019 118.083 167.552 118.328 167.063 C 118.573 166.574 118.818 166.064 119.062 165.533 C 119.307 165.001 119.552 164.447 119.797 163.873 C 120.042 163.298 120.287 162.702 120.532 162.085 C 120.777 161.468 121.022 160.83 121.267 160.172 C 121.512 159.514 121.757 158.836 122.002 158.14 C 122.247 157.444 122.492 156.729 122.737 155.997 C 122.982 155.265 123.227 154.517 123.472 153.754 C 123.717 152.991 123.962 152.214 124.207 151.425 C 124.452 150.636 124.697 149.835 124.942 149.025 C 125.187 148.216 125.432 147.398 125.677 146.574 C 125.922 145.751 126.167 144.923 126.412 144.093 C 126.657 143.264 126.902 142.433 127.147 141.605 C 127.392 140.777 127.637 139.953 127.882 139.135 C 128.127 138.318 128.372 137.508 128.617 136.711 C 128.862 135.913 129.107 135.127 129.352 134.359 C 129.597 133.59 129.842 132.838 130.087 132.107 C 130.332 131.377 130.577 130.668 130.822 129.985 C 131.067 129.303 131.312 128.646 131.557 128.02 C 131.802 127.394 132.047 126.798 132.292 126.237 C 132.537 125.676 132.782 125.15 133.027 124.662 C 133.272 124.174 133.517 123.725 133.762 123.317 C 134.007 122.909 134.252 122.543 134.497 122.22 C 134.742 121.898 134.986 121.621 135.231 121.389 C 135.476 121.157 135.721 120.972 135.966 120.835 C 136.211 120.697 136.456 120.607 136.701 120.566 C 136.946 120.524 137.191 120.532 137.436 120.587 C 137.681 120.642 137.926 120.746 138.171 120.897 C 138.416 121.048 138.661 121.246 138.906 121.491 C 139.151 121.736 139.396 122.027 139.641 122.361 C 139.886 122.696 140.131 123.074 140.376 123.494 C 140.621 123.914 140.866 124.375 141.111 124.874 C 141.356 125.372 141.601 125.909 141.846 126.48 C 142.091 127.05 142.336 127.655 142.581 128.29 C 142.826 128.925 143.071 129.589 143.316 130.28 C 143.561 130.97 143.806 131.685 144.051 132.422 C 144.296 133.158 144.541 133.916 144.786 134.689 C 145.031 135.463 145.276 136.252 145.521 137.053 C 145.766 137.854 146.011 138.667 146.256 139.486 C 146.501 140.305 146.746 141.132 146.991 141.96 C 147.236 142.789 147.481 143.62 147.726 144.449 C 147.971 145.278 148.216 146.105 148.461 146.927 C 148.706 147.749 148.951 148.565 149.196 149.372 C 149.441 150.179 149.686 150.977 149.931 151.762 C 150.176 152.548 150.421 153.322 150.666 154.08 C 150.91 154.839 151.155 155.583 151.4 156.31 C 151.645 157.036 151.89 157.746 152.135 158.437 C 152.38 159.128 152.625 159.8 152.87 160.453 C 153.115 161.105 153.36 161.737 153.605 162.348 C 153.85 162.959 154.095 163.549 154.34 164.118 C 154.585 164.686 154.83 165.234 155.075 165.759 C 155.32 166.285 155.565 166.789 155.81 167.271 C 156.055 167.754 156.3 168.215 156.545 168.655 C 156.79 169.095 157.035 169.514 157.28 169.913 C 157.525 170.312 157.77 170.69 158.015 171.05 C 158.26 171.409 158.505 171.749 158.75 172.07 C 158.995 172.392 159.24 172.695 159.485 172.981 C 159.73 173.267 159.975 173.535 160.22 173.788 C 160.465 174.041 160.71 174.278 160.955 174.5 C 161.2 174.722 161.445 174.93 161.69 175.124 C 161.935 175.318 162.18 175.499 162.425 175.667 C 162.67 175.836 162.915 175.993 163.16 176.138 C 163.405 176.284 163.65 176.418 163.895 176.543 C 164.14 176.668 164.385 176.784 164.63 176.89 C 164.875 176.997 165.12 177.095 165.365 177.185 C 165.61 177.276 165.855 177.359 166.1 177.435 C 166.345 177.512 166.59 177.582 166.834 177.646 C 167.079 177.71 167.324 177.768 167.569 177.822 C 167.814 177.875 168.059 177.924 168.304 177.968 C 168.549 178.012 168.794 178.053 169.039 178.089 C 169.284 178.126 169.529 178.159 169.774 178.189 C 170.019 178.219 170.264 178.246 170.509 178.271 C 170.754 178.295 170.999 178.317 171.244 178.337 C 171.489 178.357 171.734 178.375 171.979 178.391 C 172.224 178.407 172.469 178.421 172.714 178.434 C 172.959 178.447 173.204 178.459 173.449 178.469 C 173.694 178.479 173.939 178.488 174.184 178.497 C 174.429 178.505 174.674 178.512 174.919 178.518 C 175.164 178.525 175.409 178.531 175.654 178.536 C 175.899 178.541 176.144 178.545 176.389 178.549 C 176.634 178.553 176.879 178.557 177.124 178.56 C 177.369 178.563 177.614 178.566 177.859 178.568 C 178.104 178.57 178.349 178.572 178.594 178.574"
       title="1/(sqrt(2*pi))*exp(-(pow(x - 3,2))/(2))"
       id="path27567" />
    <path
       style="fill:none;fill-opacity:0.998602;stroke:#000000;stroke-width:0.499999"
       d="m 125.67708,146.84375 v 31.75 0"
       id="path27673" />
    <path
       style="fill:none;fill-opacity:0.998602;stroke:#000000;stroke-width:0.499999"
       d="m 138.90625,121.70833 v 56.88542"
       id="path27675" />
  </g>
</svg>
